#!OML:ASF F:\VICON\USERDATA\INSTALL\Justin_Nancy\Justin_Nancy.ASF
:FULLY-SPECIFIED
:DEGREES
280
root -0.0888454 16.5915 42.5203 -1.04438 -6.45264 -0.481402
lowerback 5.77498 1.96138 1.05268
upperback 0.319518 2.73181 1.68335
thorax -2.93973 1.3557 0.918486
lowerneck -16.2792 -3.71854 -10.447
upperneck 18.9095 -3.78588 6.0979
head 8.93311 -1.89196 3.33841
rclavicle -7.59109e-015 -1.51076e-014
rhumerus -20.3036 -6.12953 -80.9484
rradius 43.8776
rwrist -2.77347
rhand -16.1538 13.8181
rfingers 7.12502
rthumb 10.0517 -15.9218
lclavicle -7.59109e-015 -1.51076e-014
lhumerus -41.9206 10.0709 84.1264
lradius 18.5391
lwrist -22.1514
lhand -4.80896 25.8633
lfingers 7.12502
lthumb 20.977 54.749
rfemur 13.1771 5.56447 24.2488
rtibia 42.427
rfoot 14.4298 6.88513
rtoes -8.98829
lfemur -32.68 0.192757 -20.6222
ltibia 36.0829
lfoot -1.18504 -0.939308
ltoes -0.923027
281
root -0.0760766 16.6075 42.8081 -1.43251 -6.76901 -0.113369
lowerback 5.70068 2.07183 0.923358
upperback 0.562529 2.85874 1.51215
thorax -2.64623 1.4206 0.812468
lowerneck -16.5913 -3.60969 -10.1577
upperneck 19.2353 -3.61901 5.79644
head 9.07523 -1.82418 3.2098
rclavicle -3.19049e-014 -1.43125e-014
rhumerus -20.553 -6.82552 -80.981
rradius 43.5359
rwrist -2.59341
rhand -16.2934 13.4045
rfingers 7.12502
rthumb 9.9171 -16.3419
lclavicle -3.19049e-014 -1.43125e-014
lhumerus -42.0627 10.7846 83.5615
lradius 19.1686
lwrist -22.9274
lhand -4.22005 25.993
lfingers 7.12502
lthumb 21.5426 54.8149
rfemur 11.7868 5.80827 23.6232
rtibia 45.7049
rfoot 17.8997 6.59612
rtoes -5.34785
lfemur -31.6322 0.669534 -21.3822
ltibia 37.0133
lfoot -1.75072 -1.14294
ltoes 2.18661
282
root -0.0685654 16.6241 43.0675 -1.7028 -7.15599 -0.220422
lowerback 6.07176 2.22683 1.16182
upperback 0.544315 3.0892 1.5435
thorax -2.86386 1.53139 0.677432
lowerneck -16.6362 -3.33443 -10.2176
upperneck 19.7586 -3.2523 5.89154
head 9.23395 -1.65364 3.30915
rclavicle -2.34193e-014 -7.95139e-016
rhumerus -21.2794 -7.37737 -80.8686
rradius 43.684
rwrist -2.41289
rhand -16.3764 11.9925
rfingers 7.12502
rthumb 9.83706 -17.7577
lclavicle -2.34193e-014 -7.95139e-016
lhumerus -42.3954 11.3972 83.1739
lradius 19.7257
lwrist -23.4432
lhand -3.6826 26.4931
lfingers 7.12502
lthumb 22.0587 55.255
rfemur 10.0943 6.25908 23.7014
rtibia 48.9369
rfoot 21.3088 5.95562
rtoes -1.59953
lfemur -30.7086 0.763896 -21.4071
ltibia 37.8473
lfoot -2.65703 -0.669366
ltoes 3.58373
283
root -0.0546495 16.6446 43.3107 -1.91099 -7.40249 0.0932419
lowerback 6.3629 2.26056 0.967287
upperback 0.60421 3.12289 1.46828
thorax -2.97119 1.54939 0.694873
lowerneck -16.645 -3.49982 -10.2492
upperneck 19.246 -3.41243 5.69177
head 9.07096 -1.74481 3.21538
rclavicle -1.54679e-014 -1.35174e-014
rhumerus -21.557 -7.56096 -80.9493
rradius 43.4946
rwrist -2.53089
rhand -16.5614 11.7012
rfingers 7.12502
rthumb 9.65849 -18.0574
lclavicle -1.54679e-014 -1.35174e-014
lhumerus -42.3975 11.7615 83.0498
lradius 20.054
lwrist -23.3353
lhand -3.35816 26.8444
lfingers 7.12502
lthumb 22.3702 55.5692
rfemur 8.12919 6.35196 23.1591
rtibia 52.1564
rfoot 24.9596 5.61504
rtoes 1.89738
lfemur -29.9281 0.571911 -21.8693
ltibia 38.5281
lfoot -3.70441 0.394795
ltoes 3.21953
284
root -0.0385616 16.6677 43.5661 -2.0357 -7.50252 0.618461
lowerback 6.18472 2.17574 0.604887
upperback 0.763315 2.97409 1.3009
thorax -2.71574 1.47973 0.749149
lowerneck -17.0517 -3.35605 -9.82302
upperneck 18.9662 -3.19171 5.31909
head 9.01495 -1.64045 3.03811
rclavicle -1.19022e-014 -2.78299e-015
rhumerus -21.5169 -7.46672 -81.2302
rradius 42.9749
rwrist -3.01889
rhand -16.6889 11.673
rfingers 7.12502
rthumb 9.53553 -18.0912
lclavicle -1.19022e-014 -2.78299e-015
lhumerus -42.3411 12.15 82.8745
lradius 20.528
lwrist -22.9949
lhand -3.19036 27.397
lfingers 7.12502
lthumb 22.5313 56.1023
rfemur 6.05244 6.14637 22.2291
rtibia 55.308
rfoot 28.319 4.67693
rtoes 8.59271
lfemur -29.1042 0.247845 -22.6083
ltibia 39.0482
lfoot -4.80533 1.35791
ltoes 2.39778
285
root -0.0359182 16.6879 43.8269 -2.25165 -7.71211 0.95438
lowerback 6.09571 2.13965 0.30924
upperback 0.947374 2.9 1.21373
thorax -2.48563 1.44566 0.838776
lowerneck -16.8398 -3.26085 -9.77346
upperneck 18.865 -3.04805 5.1191
head 8.92637 -1.59226 2.97899
rclavicle 2.48481e-014 2.34566e-014
rhumerus -21.4283 -7.8808 -81.4933
rradius 42.1296
rwrist -2.65852
rhand -16.5237 12.4237
rfingers 7.12502
rthumb 9.69488 -17.3332
lclavicle 2.48481e-014 2.34566e-014
lhumerus -42.1491 12.3175 82.8703
lradius 21.0412
lwrist -22.2085
lhand -3.40404 27.7527
lfingers 7.12502
lthumb 22.3262 56.4828
rfemur 4.17361 6.01394 21.6467
rtibia 58.3009
rfoot 28.6926 3.54561
rtoes 10.1966
lfemur -27.9856 0.164889 -23.1128
ltibia 39.3019
lfoot -5.87903 1.83825
ltoes 0.850504
286
root -0.0464891 16.7063 44.0714 -2.42711 -7.84651 1.16548
lowerback 6.44513 2.11009 -0.112668
upperback 0.863353 2.83714 1.25567
thorax -2.78914 1.41855 1.10739
lowerneck -16.8232 -3.06134 -9.86913
upperneck 19.0189 -2.75786 5.14844
head 8.95426 -1.46279 3.04475
rclavicle 2.32081e-014 7.15625e-015
rhumerus -21.5557 -8.46228 -81.5186
rradius 41.0663
rwrist -1.7106
rhand -16.1087 13.3002
rfingers 7.12502
rthumb 10.0953 -16.4376
lclavicle 2.32081e-014 7.15625e-015
lhumerus -41.8277 12.0979 83.1473
lradius 20.8063
lwrist -20.9029
lhand -4.11665 27.9467
lfingers 7.12502
lthumb 21.6419 56.7572
rfemur 2.24009 5.80371 21.3408
rtibia 61.0809
rfoot 27.2744 3.13103
rtoes 10.7282
lfemur -26.9509 0.135253 -23.4256
ltibia 39.4456
lfoot -6.76579 2.16549
ltoes 0.596666
287
root -0.0515415 16.7312 44.3188 -2.59427 -7.75936 2.14368
lowerback 6.68308 2.06718 -1.21375
upperback 0.614681 2.69692 1.06516
thorax -3.21751 1.36367 1.5259
lowerneck -16.1031 -2.80594 -9.99949
upperneck 19.2783 -2.43023 5.04952
head 8.8868 -1.34253 3.07987
rclavicle -3.13707e-014 -2.38542e-015
rhumerus -21.9479 -8.6353 -81.518
rradius 40.1143
rwrist -0.886483
rhand -15.9277 12.5159
rfingers 7.12502
rthumb 10.2699 -17.2134
lclavicle -3.13707e-014 -2.38542e-015
lhumerus -41.2716 11.0276 83.8148
lradius 19.6947
lwrist -18.941
lhand -5.2949 27.4331
lfingers 7.12502
lthumb 20.5101 56.3697
rfemur 0.25369 5.24704 20.0143
rtibia 63.6273
rfoot 24.251 4.01143
rtoes 8.72129
lfemur -25.9393 -0.00014773 -24.6525
ltibia 39.4961
lfoot -7.56889 2.71515
ltoes 0.0625214
288
root -0.0530504 16.7478 44.5646 -2.70056 -7.56164 2.4077
lowerback 6.83622 1.90428 -1.47716
upperback 0.415226 2.45763 1.01391
thorax -3.5095 1.25146 1.63495
lowerneck -15.852 -2.80347 -9.95642
upperneck 19.8179 -2.40427 4.73055
head 9.02173 -1.37421 2.97349
rclavicle -3.02028e-014 0
rhumerus -22.241 -8.61947 -81.64
rradius 39.1587
rwrist -0.299749
rhand -15.6497 11.6284
rfingers 7.12502
rthumb 10.538 -18.0874
lclavicle -3.02028e-014 0
lhumerus -40.9436 10.4613 84.0351
lradius 19.0506
lwrist -17.7598
lhand -5.84378 26.8901
lfingers 7.12502
lthumb 19.9825 55.8827
rfemur -1.55927 4.51923 19.5081
rtibia 65.8269
rfoot 20.5084 5.03411
rtoes 6.54399
lfemur -24.8786 -0.154596 -25.1004
ltibia 39.4666
lfoot -8.39964 2.96115
ltoes -0.548557
